<svg xmlns="http://www.w3.org/2000/svg" width="1200" height="700" viewBox="0 0 1200 700">
  <defs>
    <linearGradient id="bg" x1="0" y1="0" x2="1" y2="1">
      <stop offset="0%" stop-color="#0b1220"/>
      <stop offset="100%" stop-color="#0f766e"/>
    </linearGradient>
    <linearGradient id="acc" x1="0" y1="0" x2="1" y2="0">
      <stop offset="0%" stop-color="#06b6d4"/>
      <stop offset="100%" stop-color="#7c3aed"/>
    </linearGradient>
  </defs>
  <rect width="1200" height="700" fill="url(#bg)"/>
  <rect x="80" y="100" width="1040" height="500" rx="26" fill="#0f172a"/>
  <polyline points="140,520 260,420 380,450 500,330 620,360 740,260 860,290 980,210" fill="none" stroke="#22d3ee" stroke-width="7" stroke-dasharray="12 10"/>
  <rect x="300" y="380" width="430" height="130" rx="20" fill="#e2e8f0"/>
  <rect x="320" y="410" width="120" height="70" rx="8" fill="#94a3b8"/>
  <rect x="455" y="410" width="120" height="70" rx="8" fill="#94a3b8"/>
  <circle cx="380" cy="530" r="30" fill="#111827"/>
  <circle cx="650" cy="530" r="30" fill="#111827"/>
  <rect x="610" y="325" width="90" height="55" rx="10" fill="url(#acc)"/>
  <rect x="638" y="336" width="34" height="34" fill="#fff"/>
  <rect x="651" y="323" width="8" height="60" fill="#fff"/>
  <text x="140" y="170" fill="#e2e8f0" font-size="34" font-family="Segoe UI, Arial" font-weight="700">Smart Ambulance AI System</text>
</svg>